<mxfile host="app.diagrams.net" modified="2023-07-16T09:54:18.079Z" agent="Mozilla/5.0 (Windows NT 10.0; Win64; x64) AppleWebKit/537.36 (KHTML, like Gecko) Chrome/114.0.0.0 Safari/537.36" etag="WCDKHR8WsVi66NgYrcyM" version="21.6.2" type="github">
  <diagram name="第 1 页" id="msrC1hAe30Xg3wMURsVK">
    <mxGraphModel dx="2670" dy="1990" grid="1" gridSize="10" guides="1" tooltips="1" connect="1" arrows="1" fold="1" page="1" pageScale="1" pageWidth="827" pageHeight="1169" math="0" shadow="0">
      <root>
        <mxCell id="0" />
        <mxCell id="1" parent="0" />
        <mxCell id="P365xrxu5ykFGGpO0YsA-1" value="移动、添加" style="rounded=0;whiteSpace=wrap;html=1;" parent="1" vertex="1">
          <mxGeometry x="280" width="90" height="30" as="geometry" />
        </mxCell>
        <mxCell id="kgve2yl_xJI6iGoT1gtc-13" style="edgeStyle=orthogonalEdgeStyle;rounded=0;orthogonalLoop=1;jettySize=auto;html=1;exitX=0.5;exitY=1;exitDx=0;exitDy=0;entryX=0.5;entryY=0;entryDx=0;entryDy=0;" edge="1" parent="1" source="P365xrxu5ykFGGpO0YsA-6" target="kgve2yl_xJI6iGoT1gtc-8">
          <mxGeometry relative="1" as="geometry" />
        </mxCell>
        <mxCell id="kgve2yl_xJI6iGoT1gtc-170" style="edgeStyle=orthogonalEdgeStyle;rounded=0;orthogonalLoop=1;jettySize=auto;html=1;exitX=1;exitY=0.5;exitDx=0;exitDy=0;entryX=0;entryY=0.5;entryDx=0;entryDy=0;" edge="1" parent="1" source="P365xrxu5ykFGGpO0YsA-6" target="P365xrxu5ykFGGpO0YsA-21">
          <mxGeometry relative="1" as="geometry" />
        </mxCell>
        <mxCell id="P365xrxu5ykFGGpO0YsA-6" value="是否在多设备包" style="rhombus;whiteSpace=wrap;html=1;" parent="1" vertex="1">
          <mxGeometry x="262.5" y="166.99" width="125" height="90" as="geometry" />
        </mxCell>
        <mxCell id="P365xrxu5ykFGGpO0YsA-10" value="" style="edgeStyle=orthogonalEdgeStyle;rounded=0;orthogonalLoop=1;jettySize=auto;html=1;exitX=0.5;exitY=1;exitDx=0;exitDy=0;" parent="1" source="P365xrxu5ykFGGpO0YsA-1" target="P365xrxu5ykFGGpO0YsA-8" edge="1">
          <mxGeometry relative="1" as="geometry">
            <mxPoint x="325" y="60" as="sourcePoint" />
            <mxPoint x="191" y="240" as="targetPoint" />
          </mxGeometry>
        </mxCell>
        <mxCell id="kgve2yl_xJI6iGoT1gtc-137" style="edgeStyle=orthogonalEdgeStyle;rounded=0;orthogonalLoop=1;jettySize=auto;html=1;exitX=1;exitY=0.5;exitDx=0;exitDy=0;" edge="1" parent="1" source="P365xrxu5ykFGGpO0YsA-8" target="kgve2yl_xJI6iGoT1gtc-135">
          <mxGeometry relative="1" as="geometry" />
        </mxCell>
        <mxCell id="kgve2yl_xJI6iGoT1gtc-168" style="edgeStyle=orthogonalEdgeStyle;rounded=0;orthogonalLoop=1;jettySize=auto;html=1;exitX=0.5;exitY=1;exitDx=0;exitDy=0;" edge="1" parent="1" source="P365xrxu5ykFGGpO0YsA-8" target="P365xrxu5ykFGGpO0YsA-6">
          <mxGeometry relative="1" as="geometry" />
        </mxCell>
        <mxCell id="P365xrxu5ykFGGpO0YsA-8" value="UUID是否已经存在" style="rhombus;whiteSpace=wrap;html=1;rounded=0;" parent="1" vertex="1">
          <mxGeometry x="228.98000000000002" y="60" width="192.03" height="70" as="geometry" />
        </mxCell>
        <mxCell id="P365xrxu5ykFGGpO0YsA-20" value="是" style="text;html=1;strokeColor=none;fillColor=none;align=center;verticalAlign=middle;whiteSpace=wrap;rounded=0;" parent="1" vertex="1">
          <mxGeometry x="290" y="259.75" width="60" height="30" as="geometry" />
        </mxCell>
        <mxCell id="kgve2yl_xJI6iGoT1gtc-174" style="edgeStyle=orthogonalEdgeStyle;rounded=0;orthogonalLoop=1;jettySize=auto;html=1;exitX=1;exitY=0.5;exitDx=0;exitDy=0;entryX=0;entryY=0.5;entryDx=0;entryDy=0;" edge="1" parent="1" source="P365xrxu5ykFGGpO0YsA-21" target="kgve2yl_xJI6iGoT1gtc-173">
          <mxGeometry relative="1" as="geometry" />
        </mxCell>
        <mxCell id="P365xrxu5ykFGGpO0YsA-21" value="过滤出已经存在的TargetDevice" style="rounded=0;whiteSpace=wrap;html=1;" parent="1" vertex="1">
          <mxGeometry x="540" y="191.75" width="245.75" height="39" as="geometry" />
        </mxCell>
        <mxCell id="P365xrxu5ykFGGpO0YsA-29" value="不存在的UUID" style="text;html=1;strokeColor=none;fillColor=none;align=center;verticalAlign=middle;whiteSpace=wrap;rounded=0;" parent="1" vertex="1">
          <mxGeometry x="455" y="80" width="170" height="50" as="geometry" />
        </mxCell>
        <mxCell id="P365xrxu5ykFGGpO0YsA-32" style="edgeStyle=orthogonalEdgeStyle;rounded=0;orthogonalLoop=1;jettySize=auto;html=1;exitX=0;exitY=0.5;exitDx=0;exitDy=0;" parent="1" source="P365xrxu5ykFGGpO0YsA-30" target="P365xrxu5ykFGGpO0YsA-31" edge="1">
          <mxGeometry relative="1" as="geometry" />
        </mxCell>
        <mxCell id="P365xrxu5ykFGGpO0YsA-35" style="edgeStyle=orthogonalEdgeStyle;rounded=0;orthogonalLoop=1;jettySize=auto;html=1;exitX=1;exitY=0.5;exitDx=0;exitDy=0;entryX=0.5;entryY=0;entryDx=0;entryDy=0;" parent="1" source="P365xrxu5ykFGGpO0YsA-30" target="P365xrxu5ykFGGpO0YsA-34" edge="1">
          <mxGeometry relative="1" as="geometry" />
        </mxCell>
        <mxCell id="P365xrxu5ykFGGpO0YsA-30" value="是否聚合" style="rhombus;whiteSpace=wrap;html=1;" parent="1" vertex="1">
          <mxGeometry x="-669.5" y="298.25" width="80" height="55" as="geometry" />
        </mxCell>
        <mxCell id="P365xrxu5ykFGGpO0YsA-38" style="edgeStyle=orthogonalEdgeStyle;rounded=0;orthogonalLoop=1;jettySize=auto;html=1;exitX=0.5;exitY=1;exitDx=0;exitDy=0;" parent="1" source="P365xrxu5ykFGGpO0YsA-31" edge="1">
          <mxGeometry relative="1" as="geometry">
            <mxPoint x="-749.5000000000002" y="498.25" as="targetPoint" />
          </mxGeometry>
        </mxCell>
        <mxCell id="P365xrxu5ykFGGpO0YsA-31" value="创建一个BatchTarget" style="rounded=0;whiteSpace=wrap;html=1;" parent="1" vertex="1">
          <mxGeometry x="-789.5" y="378.25" width="80" height="40" as="geometry" />
        </mxCell>
        <mxCell id="P365xrxu5ykFGGpO0YsA-33" value="是" style="text;html=1;strokeColor=none;fillColor=none;align=center;verticalAlign=middle;whiteSpace=wrap;rounded=0;" parent="1" vertex="1">
          <mxGeometry x="-769.5" y="338.25" width="60" height="30" as="geometry" />
        </mxCell>
        <mxCell id="P365xrxu5ykFGGpO0YsA-40" style="edgeStyle=orthogonalEdgeStyle;rounded=0;orthogonalLoop=1;jettySize=auto;html=1;exitX=0.5;exitY=1;exitDx=0;exitDy=0;entryX=0.5;entryY=0;entryDx=0;entryDy=0;" parent="1" source="P365xrxu5ykFGGpO0YsA-34" target="P365xrxu5ykFGGpO0YsA-39" edge="1">
          <mxGeometry relative="1" as="geometry" />
        </mxCell>
        <mxCell id="P365xrxu5ykFGGpO0YsA-34" value="创建多个BatchTarget" style="rounded=0;whiteSpace=wrap;html=1;" parent="1" vertex="1">
          <mxGeometry x="-609.5" y="363.25" width="120" height="40" as="geometry" />
        </mxCell>
        <mxCell id="P365xrxu5ykFGGpO0YsA-36" value="否" style="text;html=1;strokeColor=none;fillColor=none;align=center;verticalAlign=middle;whiteSpace=wrap;rounded=0;" parent="1" vertex="1">
          <mxGeometry x="-560.52" y="333.25" width="60" height="30" as="geometry" />
        </mxCell>
        <mxCell id="P365xrxu5ykFGGpO0YsA-37" value="创建多个TargetDevice&lt;br&gt;（sr拼字段数据）&lt;br&gt;指向刚刚的BatchTarget" style="rounded=0;whiteSpace=wrap;html=1;" parent="1" vertex="1">
          <mxGeometry x="-827" y="488.25" width="155" height="60" as="geometry" />
        </mxCell>
        <mxCell id="P365xrxu5ykFGGpO0YsA-42" style="edgeStyle=orthogonalEdgeStyle;rounded=0;orthogonalLoop=1;jettySize=auto;html=1;exitX=0.5;exitY=1;exitDx=0;exitDy=0;" parent="1" source="P365xrxu5ykFGGpO0YsA-39" target="P365xrxu5ykFGGpO0YsA-41" edge="1">
          <mxGeometry relative="1" as="geometry" />
        </mxCell>
        <mxCell id="P365xrxu5ykFGGpO0YsA-39" value="查询刚刚创建的BatchTarget&lt;br&gt;得到batch_target_ids" style="rounded=0;whiteSpace=wrap;html=1;" parent="1" vertex="1">
          <mxGeometry x="-639.5" y="428.25" width="165" height="50" as="geometry" />
        </mxCell>
        <mxCell id="P365xrxu5ykFGGpO0YsA-41" value="创建多个TargetDevice指向特定的BatchTarget&lt;br&gt;（sr拼数据）" style="rounded=0;whiteSpace=wrap;html=1;" parent="1" vertex="1">
          <mxGeometry x="-627" y="518.25" width="140" height="80" as="geometry" />
        </mxCell>
        <mxCell id="kgve2yl_xJI6iGoT1gtc-104" style="edgeStyle=orthogonalEdgeStyle;rounded=0;orthogonalLoop=1;jettySize=auto;html=1;exitX=0.5;exitY=1;exitDx=0;exitDy=0;entryX=0.5;entryY=0;entryDx=0;entryDy=0;" edge="1" parent="1" source="P365xrxu5ykFGGpO0YsA-48" target="kgve2yl_xJI6iGoT1gtc-100">
          <mxGeometry relative="1" as="geometry" />
        </mxCell>
        <mxCell id="kgve2yl_xJI6iGoT1gtc-113" style="edgeStyle=orthogonalEdgeStyle;rounded=0;orthogonalLoop=1;jettySize=auto;html=1;exitX=1;exitY=0.5;exitDx=0;exitDy=0;entryX=0.25;entryY=0;entryDx=0;entryDy=0;" edge="1" parent="1" source="P365xrxu5ykFGGpO0YsA-48" target="P365xrxu5ykFGGpO0YsA-62">
          <mxGeometry relative="1" as="geometry" />
        </mxCell>
        <mxCell id="P365xrxu5ykFGGpO0YsA-48" value="是否聚合" style="rhombus;whiteSpace=wrap;html=1;" parent="1" vertex="1">
          <mxGeometry x="517" y="412.5" width="80" height="55" as="geometry" />
        </mxCell>
        <mxCell id="P365xrxu5ykFGGpO0YsA-55" value="是" style="text;html=1;strokeColor=none;fillColor=none;align=center;verticalAlign=middle;whiteSpace=wrap;rounded=0;" parent="1" vertex="1">
          <mxGeometry x="517" y="481.25" width="60" height="45" as="geometry" />
        </mxCell>
        <mxCell id="kgve2yl_xJI6iGoT1gtc-107" style="edgeStyle=orthogonalEdgeStyle;rounded=0;orthogonalLoop=1;jettySize=auto;html=1;exitX=0.5;exitY=1;exitDx=0;exitDy=0;entryX=0.5;entryY=0;entryDx=0;entryDy=0;" edge="1" parent="1" source="P365xrxu5ykFGGpO0YsA-62" target="kgve2yl_xJI6iGoT1gtc-106">
          <mxGeometry relative="1" as="geometry" />
        </mxCell>
        <mxCell id="P365xrxu5ykFGGpO0YsA-62" value="创建多个BatchTarget" style="rounded=0;whiteSpace=wrap;html=1;" parent="1" vertex="1">
          <mxGeometry x="760" y="532.5" width="120" height="40" as="geometry" />
        </mxCell>
        <mxCell id="kgve2yl_xJI6iGoT1gtc-20" style="edgeStyle=orthogonalEdgeStyle;rounded=0;orthogonalLoop=1;jettySize=auto;html=1;exitX=0;exitY=0.5;exitDx=0;exitDy=0;" edge="1" parent="1" source="P365xrxu5ykFGGpO0YsA-64" target="kgve2yl_xJI6iGoT1gtc-18">
          <mxGeometry relative="1" as="geometry" />
        </mxCell>
        <mxCell id="P365xrxu5ykFGGpO0YsA-64" value="修改多个TargetDevice指向自己的BatchTarget" style="rounded=0;whiteSpace=wrap;html=1;" parent="1" vertex="1">
          <mxGeometry x="681.01" y="670" width="260" height="55" as="geometry" />
        </mxCell>
        <mxCell id="P365xrxu5ykFGGpO0YsA-70" value="否" style="text;html=1;strokeColor=none;fillColor=none;align=center;verticalAlign=middle;whiteSpace=wrap;rounded=0;" parent="1" vertex="1">
          <mxGeometry x="630" y="414.5" width="60" height="30" as="geometry" />
        </mxCell>
        <mxCell id="kgve2yl_xJI6iGoT1gtc-10" style="edgeStyle=orthogonalEdgeStyle;rounded=0;orthogonalLoop=1;jettySize=auto;html=1;exitX=1;exitY=0.5;exitDx=0;exitDy=0;entryX=0.5;entryY=0;entryDx=0;entryDy=0;" edge="1" parent="1" source="kgve2yl_xJI6iGoT1gtc-8" target="P365xrxu5ykFGGpO0YsA-48">
          <mxGeometry relative="1" as="geometry">
            <mxPoint x="490" y="415" as="sourcePoint" />
            <Array as="points">
              <mxPoint x="557" y="405" />
            </Array>
          </mxGeometry>
        </mxCell>
        <mxCell id="kgve2yl_xJI6iGoT1gtc-15" style="edgeStyle=orthogonalEdgeStyle;rounded=0;orthogonalLoop=1;jettySize=auto;html=1;exitX=0.5;exitY=1;exitDx=0;exitDy=0;" edge="1" parent="1" source="kgve2yl_xJI6iGoT1gtc-8" target="kgve2yl_xJI6iGoT1gtc-14">
          <mxGeometry relative="1" as="geometry" />
        </mxCell>
        <mxCell id="kgve2yl_xJI6iGoT1gtc-8" value="是否移向特定的包" style="rhombus;whiteSpace=wrap;html=1;" vertex="1" parent="1">
          <mxGeometry x="257.5" y="377.75" width="135" height="55" as="geometry" />
        </mxCell>
        <mxCell id="kgve2yl_xJI6iGoT1gtc-156" style="edgeStyle=orthogonalEdgeStyle;rounded=0;orthogonalLoop=1;jettySize=auto;html=1;exitX=0.5;exitY=1;exitDx=0;exitDy=0;entryX=0.5;entryY=0;entryDx=0;entryDy=0;" edge="1" parent="1" source="kgve2yl_xJI6iGoT1gtc-14" target="kgve2yl_xJI6iGoT1gtc-18">
          <mxGeometry relative="1" as="geometry" />
        </mxCell>
        <mxCell id="kgve2yl_xJI6iGoT1gtc-14" value="直接修改target_device的batch_target_id" style="rounded=0;whiteSpace=wrap;html=1;" vertex="1" parent="1">
          <mxGeometry x="260" y="502.75" width="130" height="50" as="geometry" />
        </mxCell>
        <mxCell id="kgve2yl_xJI6iGoT1gtc-24" style="edgeStyle=orthogonalEdgeStyle;rounded=0;orthogonalLoop=1;jettySize=auto;html=1;exitX=0.5;exitY=1;exitDx=0;exitDy=0;entryX=0.5;entryY=0;entryDx=0;entryDy=0;" edge="1" parent="1" source="kgve2yl_xJI6iGoT1gtc-18" target="kgve2yl_xJI6iGoT1gtc-23">
          <mxGeometry relative="1" as="geometry" />
        </mxCell>
        <mxCell id="kgve2yl_xJI6iGoT1gtc-28" style="edgeStyle=orthogonalEdgeStyle;rounded=0;orthogonalLoop=1;jettySize=auto;html=1;exitX=0;exitY=0.5;exitDx=0;exitDy=0;" edge="1" parent="1" source="kgve2yl_xJI6iGoT1gtc-18" target="kgve2yl_xJI6iGoT1gtc-27">
          <mxGeometry relative="1" as="geometry" />
        </mxCell>
        <mxCell id="kgve2yl_xJI6iGoT1gtc-18" value="判断原先的包是否可删除" style="rhombus;whiteSpace=wrap;html=1;" vertex="1" parent="1">
          <mxGeometry x="211.87" y="707.5" width="226.25" height="90" as="geometry" />
        </mxCell>
        <mxCell id="kgve2yl_xJI6iGoT1gtc-23" value="删除原先的多设备包" style="rounded=0;whiteSpace=wrap;html=1;" vertex="1" parent="1">
          <mxGeometry x="247.5" y="900" width="155" height="40" as="geometry" />
        </mxCell>
        <mxCell id="kgve2yl_xJI6iGoT1gtc-25" value="是" style="text;html=1;strokeColor=none;fillColor=none;align=center;verticalAlign=middle;whiteSpace=wrap;rounded=0;" vertex="1" parent="1">
          <mxGeometry x="310" y="827.5" width="60" height="30" as="geometry" />
        </mxCell>
        <mxCell id="kgve2yl_xJI6iGoT1gtc-27" value="不处理" style="rounded=0;whiteSpace=wrap;html=1;" vertex="1" parent="1">
          <mxGeometry x="71.87" y="817.5" width="140" height="40" as="geometry" />
        </mxCell>
        <mxCell id="kgve2yl_xJI6iGoT1gtc-29" value="否" style="text;html=1;strokeColor=none;fillColor=none;align=center;verticalAlign=middle;whiteSpace=wrap;rounded=0;" vertex="1" parent="1">
          <mxGeometry x="120" y="760" width="60" height="30" as="geometry" />
        </mxCell>
        <mxCell id="kgve2yl_xJI6iGoT1gtc-55" style="edgeStyle=orthogonalEdgeStyle;rounded=0;orthogonalLoop=1;jettySize=auto;html=1;exitX=0;exitY=0.5;exitDx=0;exitDy=0;entryX=0.5;entryY=0;entryDx=0;entryDy=0;" edge="1" parent="1" source="kgve2yl_xJI6iGoT1gtc-53" target="P365xrxu5ykFGGpO0YsA-30">
          <mxGeometry relative="1" as="geometry" />
        </mxCell>
        <mxCell id="kgve2yl_xJI6iGoT1gtc-58" style="edgeStyle=orthogonalEdgeStyle;rounded=0;orthogonalLoop=1;jettySize=auto;html=1;exitX=0.5;exitY=1;exitDx=0;exitDy=0;" edge="1" parent="1" source="kgve2yl_xJI6iGoT1gtc-53" target="kgve2yl_xJI6iGoT1gtc-57">
          <mxGeometry relative="1" as="geometry" />
        </mxCell>
        <mxCell id="kgve2yl_xJI6iGoT1gtc-53" value="是否移动到特定的包中" style="rhombus;whiteSpace=wrap;html=1;" vertex="1" parent="1">
          <mxGeometry x="-447" y="230.75" width="180" height="95" as="geometry" />
        </mxCell>
        <mxCell id="kgve2yl_xJI6iGoT1gtc-56" value="否" style="text;html=1;strokeColor=none;fillColor=none;align=center;verticalAlign=middle;whiteSpace=wrap;rounded=0;" vertex="1" parent="1">
          <mxGeometry x="-527" y="241.75" width="60" height="30" as="geometry" />
        </mxCell>
        <mxCell id="kgve2yl_xJI6iGoT1gtc-57" value="创建多个TargetDevice&lt;br&gt;（sr拼字段数据）&lt;br&gt;指向特定的BatchTarget" style="rounded=0;whiteSpace=wrap;html=1;" vertex="1" parent="1">
          <mxGeometry x="-437" y="400" width="240" height="80" as="geometry" />
        </mxCell>
        <mxCell id="kgve2yl_xJI6iGoT1gtc-59" value="是" style="text;html=1;strokeColor=none;fillColor=none;align=center;verticalAlign=middle;whiteSpace=wrap;rounded=0;" vertex="1" parent="1">
          <mxGeometry x="-367" y="338.25" width="60" height="30" as="geometry" />
        </mxCell>
        <mxCell id="kgve2yl_xJI6iGoT1gtc-102" style="edgeStyle=orthogonalEdgeStyle;rounded=0;orthogonalLoop=1;jettySize=auto;html=1;exitX=0.5;exitY=1;exitDx=0;exitDy=0;entryX=0.472;entryY=0.089;entryDx=0;entryDy=0;entryPerimeter=0;" edge="1" parent="1" source="kgve2yl_xJI6iGoT1gtc-100" target="kgve2yl_xJI6iGoT1gtc-101">
          <mxGeometry relative="1" as="geometry" />
        </mxCell>
        <mxCell id="kgve2yl_xJI6iGoT1gtc-100" value="创建一个BatchTarget" style="rounded=0;whiteSpace=wrap;html=1;" vertex="1" parent="1">
          <mxGeometry x="484" y="518.25" width="146" height="22.5" as="geometry" />
        </mxCell>
        <mxCell id="kgve2yl_xJI6iGoT1gtc-103" style="edgeStyle=orthogonalEdgeStyle;rounded=0;orthogonalLoop=1;jettySize=auto;html=1;exitX=0;exitY=0.5;exitDx=0;exitDy=0;" edge="1" parent="1" source="kgve2yl_xJI6iGoT1gtc-101" target="kgve2yl_xJI6iGoT1gtc-18">
          <mxGeometry relative="1" as="geometry" />
        </mxCell>
        <mxCell id="kgve2yl_xJI6iGoT1gtc-101" value="修改多个TargetDevice指向刚刚的BatchTarget" style="rounded=0;whiteSpace=wrap;html=1;" vertex="1" parent="1">
          <mxGeometry x="430" y="612.75" width="268.5" height="28.5" as="geometry" />
        </mxCell>
        <mxCell id="kgve2yl_xJI6iGoT1gtc-108" style="edgeStyle=orthogonalEdgeStyle;rounded=0;orthogonalLoop=1;jettySize=auto;html=1;exitX=0.5;exitY=1;exitDx=0;exitDy=0;" edge="1" parent="1" source="kgve2yl_xJI6iGoT1gtc-106" target="P365xrxu5ykFGGpO0YsA-64">
          <mxGeometry relative="1" as="geometry" />
        </mxCell>
        <mxCell id="kgve2yl_xJI6iGoT1gtc-106" value="查询刚刚创建的BatchTarget&lt;br&gt;得到batch_target_ids" style="rounded=0;whiteSpace=wrap;html=1;" vertex="1" parent="1">
          <mxGeometry x="730" y="598.75" width="160" height="42.5" as="geometry" />
        </mxCell>
        <mxCell id="kgve2yl_xJI6iGoT1gtc-150" style="edgeStyle=orthogonalEdgeStyle;rounded=0;orthogonalLoop=1;jettySize=auto;html=1;exitX=1;exitY=0.5;exitDx=0;exitDy=0;entryX=0.5;entryY=0;entryDx=0;entryDy=0;" edge="1" parent="1" source="kgve2yl_xJI6iGoT1gtc-135" target="kgve2yl_xJI6iGoT1gtc-8">
          <mxGeometry relative="1" as="geometry">
            <Array as="points">
              <mxPoint x="860" y="95" />
              <mxPoint x="860" y="290" />
              <mxPoint x="325" y="290" />
            </Array>
          </mxGeometry>
        </mxCell>
        <mxCell id="kgve2yl_xJI6iGoT1gtc-135" value="创建多个TargetDevice" style="rounded=0;whiteSpace=wrap;html=1;" vertex="1" parent="1">
          <mxGeometry x="690" y="63.620000000000005" width="150" height="62.75" as="geometry" />
        </mxCell>
        <mxCell id="kgve2yl_xJI6iGoT1gtc-139" value="&lt;span style=&quot;color: rgb(0, 0, 0); font-family: Helvetica; font-size: 12px; font-style: normal; font-variant-ligatures: normal; font-variant-caps: normal; font-weight: 400; letter-spacing: normal; orphans: 2; text-align: center; text-indent: 0px; text-transform: none; widows: 2; word-spacing: 0px; -webkit-text-stroke-width: 0px; background-color: rgb(251, 251, 251); text-decoration-thickness: initial; text-decoration-style: initial; text-decoration-color: initial; float: none; display: inline !important;&quot;&gt;否&lt;/span&gt;" style="text;whiteSpace=wrap;html=1;" vertex="1" parent="1">
          <mxGeometry x="467" y="374.5" width="50" height="40" as="geometry" />
        </mxCell>
        <mxCell id="kgve2yl_xJI6iGoT1gtc-143" value="是" style="text;html=1;strokeColor=none;fillColor=none;align=center;verticalAlign=middle;whiteSpace=wrap;rounded=0;" vertex="1" parent="1">
          <mxGeometry x="308.13" y="451.25" width="60" height="30" as="geometry" />
        </mxCell>
        <mxCell id="kgve2yl_xJI6iGoT1gtc-144" style="edgeStyle=orthogonalEdgeStyle;rounded=0;orthogonalLoop=1;jettySize=auto;html=1;exitX=0.5;exitY=1;exitDx=0;exitDy=0;" edge="1" parent="1">
          <mxGeometry relative="1" as="geometry">
            <mxPoint x="441.0100000000002" y="160" as="sourcePoint" />
            <mxPoint x="441.0100000000002" y="160" as="targetPoint" />
          </mxGeometry>
        </mxCell>
        <mxCell id="kgve2yl_xJI6iGoT1gtc-145" style="edgeStyle=orthogonalEdgeStyle;rounded=0;orthogonalLoop=1;jettySize=auto;html=1;exitX=0.5;exitY=0;exitDx=0;exitDy=0;entryX=0.25;entryY=0;entryDx=0;entryDy=0;" edge="1" parent="1" source="P365xrxu5ykFGGpO0YsA-1" target="P365xrxu5ykFGGpO0YsA-1">
          <mxGeometry relative="1" as="geometry" />
        </mxCell>
        <mxCell id="kgve2yl_xJI6iGoT1gtc-149" style="edgeStyle=orthogonalEdgeStyle;rounded=0;orthogonalLoop=1;jettySize=auto;html=1;exitX=0.5;exitY=0;exitDx=0;exitDy=0;entryX=0.75;entryY=0;entryDx=0;entryDy=0;" edge="1" parent="1" source="P365xrxu5ykFGGpO0YsA-1" target="P365xrxu5ykFGGpO0YsA-1">
          <mxGeometry relative="1" as="geometry" />
        </mxCell>
        <mxCell id="kgve2yl_xJI6iGoT1gtc-163" value="移动、添加" style="rounded=0;whiteSpace=wrap;html=1;" vertex="1" parent="1">
          <mxGeometry x="293.13" y="-710" width="90" height="30" as="geometry" />
        </mxCell>
        <mxCell id="kgve2yl_xJI6iGoT1gtc-164" value="处理BatchTarget" style="rounded=0;whiteSpace=wrap;html=1;" vertex="1" parent="1">
          <mxGeometry x="30" y="-510" width="180" height="40" as="geometry" />
        </mxCell>
        <mxCell id="kgve2yl_xJI6iGoT1gtc-165" value="处理TargetDevice" style="rounded=0;whiteSpace=wrap;html=1;" vertex="1" parent="1">
          <mxGeometry x="455" y="-510" width="181.88" height="40" as="geometry" />
        </mxCell>
        <mxCell id="kgve2yl_xJI6iGoT1gtc-167" value="UUID是否存在" style="rhombus;whiteSpace=wrap;html=1;" vertex="1" parent="1">
          <mxGeometry x="267" y="-634" width="146.87" height="50" as="geometry" />
        </mxCell>
        <mxCell id="kgve2yl_xJI6iGoT1gtc-169" value="存在" style="text;html=1;strokeColor=none;fillColor=none;align=center;verticalAlign=middle;whiteSpace=wrap;rounded=0;" vertex="1" parent="1">
          <mxGeometry x="267" y="130" width="60" height="30" as="geometry" />
        </mxCell>
        <mxCell id="kgve2yl_xJI6iGoT1gtc-171" value="否" style="text;html=1;strokeColor=none;fillColor=none;align=center;verticalAlign=middle;whiteSpace=wrap;rounded=0;" vertex="1" parent="1">
          <mxGeometry x="438.12" y="180" width="60" height="30" as="geometry" />
        </mxCell>
        <mxCell id="kgve2yl_xJI6iGoT1gtc-185" style="edgeStyle=orthogonalEdgeStyle;rounded=0;orthogonalLoop=1;jettySize=auto;html=1;exitX=0.5;exitY=1;exitDx=0;exitDy=0;entryX=0.5;entryY=0;entryDx=0;entryDy=0;" edge="1" parent="1" source="kgve2yl_xJI6iGoT1gtc-173" target="kgve2yl_xJI6iGoT1gtc-184">
          <mxGeometry relative="1" as="geometry" />
        </mxCell>
        <mxCell id="kgve2yl_xJI6iGoT1gtc-192" style="edgeStyle=orthogonalEdgeStyle;rounded=0;orthogonalLoop=1;jettySize=auto;html=1;exitX=1;exitY=0.5;exitDx=0;exitDy=0;" edge="1" parent="1" source="kgve2yl_xJI6iGoT1gtc-173" target="kgve2yl_xJI6iGoT1gtc-191">
          <mxGeometry relative="1" as="geometry" />
        </mxCell>
        <mxCell id="kgve2yl_xJI6iGoT1gtc-173" value="是否移向特定的包，&lt;br&gt;是否聚合" style="rhombus;whiteSpace=wrap;html=1;" vertex="1" parent="1">
          <mxGeometry x="857.5" y="173.5" width="240" height="75.51" as="geometry" />
        </mxCell>
        <mxCell id="kgve2yl_xJI6iGoT1gtc-190" style="edgeStyle=orthogonalEdgeStyle;rounded=0;orthogonalLoop=1;jettySize=auto;html=1;exitX=0.5;exitY=1;exitDx=0;exitDy=0;entryX=0.5;entryY=0;entryDx=0;entryDy=0;" edge="1" parent="1" source="kgve2yl_xJI6iGoT1gtc-184" target="kgve2yl_xJI6iGoT1gtc-8">
          <mxGeometry relative="1" as="geometry" />
        </mxCell>
        <mxCell id="kgve2yl_xJI6iGoT1gtc-184" value="删除原先的BatchTarget" style="rounded=0;whiteSpace=wrap;html=1;" vertex="1" parent="1">
          <mxGeometry x="906.5" y="295.25" width="142" height="38" as="geometry" />
        </mxCell>
        <mxCell id="kgve2yl_xJI6iGoT1gtc-187" value="是" style="text;html=1;strokeColor=none;fillColor=none;align=center;verticalAlign=middle;whiteSpace=wrap;rounded=0;" vertex="1" parent="1">
          <mxGeometry x="960" y="239.49" width="60" height="30" as="geometry" />
        </mxCell>
        <mxCell id="kgve2yl_xJI6iGoT1gtc-191" value="直接修改BatchTarget的Typ" style="rounded=0;whiteSpace=wrap;html=1;" vertex="1" parent="1">
          <mxGeometry x="1120" y="290" width="120" height="40" as="geometry" />
        </mxCell>
        <mxCell id="kgve2yl_xJI6iGoT1gtc-193" value="否" style="text;html=1;strokeColor=none;fillColor=none;align=center;verticalAlign=middle;whiteSpace=wrap;rounded=0;" vertex="1" parent="1">
          <mxGeometry x="1120" y="180" width="60" height="30" as="geometry" />
        </mxCell>
      </root>
    </mxGraphModel>
  </diagram>
</mxfile>
